<?xml version="1.0" encoding="utf-8"?>
<!-- Generator: Adobe Illustrator 26.1.0, SVG Export Plug-In . SVG Version: 6.00 Build 0)  -->
<svg version="1.1" id="Слой_1" xmlns="http://www.w3.org/2000/svg" xmlns:xlink="http://www.w3.org/1999/xlink" x="0px" y="0px"
	 viewBox="0 0 156.9 15.9" style="enable-background:new 0 0 156.9 15.9;" xml:space="preserve">
<style type="text/css">
	.st0{fill:#23A038;}
	.st1{fill:url(#SVGID_1_);}
	.st2{fill:url(#SVGID_00000119822969383344187540000001775552057028843711_);}
	.st3{fill:url(#SVGID_00000028292212475199011600000006193202537554429867_);}
	.st4{fill:url(#SVGID_00000088829632568860309600000015737251759392706695_);}
	.st5{fill:url(#SVGID_00000090275393902513532190000007814643515695631491_);}
	.st6{fill:url(#SVGID_00000088853723475811354950000012004268569109859511_);}
	.st7{fill:#0F86C8;}
</style>
<path class="st0" d="M46,4.8l2.1-1.6H41v9.6h7.2v-1.6H43V8.7h4.4V7.1H43V4.8H46z"/>
<path class="st0" d="M35.5,6.9H33V4.8h4l2.1-1.6H31v9.6h4.3c2.4,0,3.8-1.1,3.8-3C39.1,7.9,37.8,6.9,35.5,6.9z M35.2,11.1H33V8.5h2.1
	c1.3,0,1.9,0.4,1.9,1.3C37.1,10.7,36.5,11.1,35.2,11.1z"/>
<path class="st0" d="M54,3.2h-3.9v9.6h2.1V10H54c2.5,0,4-1.3,4-3.4S56.5,3.2,54,3.2z M53.9,8.4h-1.8V4.8h1.8c1.3,0,2,0.7,2,1.8
	C56,7.8,55.2,8.4,53.9,8.4z"/>
<path class="st0" d="M27.5,10.7c-0.5,0.3-1.2,0.5-1.8,0.5c-1.9,0-3.2-1.3-3.2-3.2c0-1.8,1.3-3.2,3.2-3.2c0.7,0,1.3,0.2,1.9,0.6
	L29,4.3V4.2C28.1,3.4,27,3,25.7,3c-1.4,0-2.7,0.5-3.6,1.4s-1.5,2.2-1.4,3.5c0,1.3,0.5,2.6,1.4,3.6c1,0.9,2.3,1.4,3.6,1.4
	c1.5,0,2.8-0.5,3.6-1.5l-1.3-1L27.5,10.7z"/>
<path class="st0" d="M14.1,3.1c0.4,0.5,0.7,1,0.9,1.6L7.9,10l-3-1.9V5.8l3,1.9L14.1,3.1z"/>
<linearGradient id="SVGID_1_" gradientUnits="userSpaceOnUse" x1="2.6131" y1="838.053" x2="0.7544" y2="832.639" gradientTransform="matrix(1 0 0 1 0 -824.8667)">
	<stop  offset="0.1444" style="stop-color:#F0E526"/>
	<stop  offset="0.3037" style="stop-color:#E4E025"/>
	<stop  offset="0.5823" style="stop-color:#C8D531"/>
	<stop  offset="0.891" style="stop-color:#A3C73F"/>
</linearGradient>
<path class="st1" d="M1.8,8c0-0.1,0-0.2,0-0.3L0,7.6C0,7.7,0,7.9,0,8c0,2.2,0.9,4.2,2.3,5.6l1.3-1.3C2.5,11.2,1.8,9.7,1.8,8z"/>
<linearGradient id="SVGID_00000181049576807126576530000000485990304040755370_" gradientUnits="userSpaceOnUse" x1="3.0191" y1="827.4852" x2="7.7379" y2="825.6732" gradientTransform="matrix(1 0 0 1 0 -824.8667)">
	<stop  offset="5.920000e-02" style="stop-color:#18A8E1"/>
	<stop  offset="0.5385" style="stop-color:#408FCE"/>
	<stop  offset="0.9234" style="stop-color:#3489CA"/>
</linearGradient>
<path style="fill:url(#SVGID_00000181049576807126576530000000485990304040755370_);" d="M7.9,1.9c0.1,0,0.2,0,0.3,0L8.3,0
	C8.2,0,8,0,7.9,0C5.7,0,3.7,0.9,2.3,2.4l1.3,1.3C4.7,2.5,6.2,1.9,7.9,1.9z"/>
<linearGradient id="SVGID_00000051379994931044714050000016003762333142111633_" gradientUnits="userSpaceOnUse" x1="7.4761" y1="839.6555" x2="13.1016" y2="838.3744" gradientTransform="matrix(1 0 0 1 0 -824.8667)">
	<stop  offset="0.1226" style="stop-color:#A3C73F"/>
	<stop  offset="0.2846" style="stop-color:#88BE3F"/>
	<stop  offset="0.8693" style="stop-color:#23A038"/>
</linearGradient>
<path style="fill:url(#SVGID_00000051379994931044714050000016003762333142111633_);" d="M7.9,14.1c-0.1,0-0.2,0-0.3,0l-0.1,1.8
	c0.1,0,0.3,0,0.4,0c2.2,0,4.2-0.9,5.6-2.3l-1.3-1.3C11.1,13.4,9.6,14.1,7.9,14.1z"/>
<linearGradient id="SVGID_00000009572856296310992560000018196339963163196049_" gradientUnits="userSpaceOnUse" x1="7.6692" y1="825.537" x2="12.3464" y2="826.9913" gradientTransform="matrix(1 0 0 1 0 -824.8667)">
	<stop  offset="5.660000e-02" style="stop-color:#3489CA"/>
	<stop  offset="0.79" style="stop-color:#118ACB"/>
</linearGradient>
<path style="fill:url(#SVGID_00000009572856296310992560000018196339963163196049_);" d="M11.3,2.9l1.5-1.1C11.5,0.7,9.8,0,7.9,0
	v1.8C9.2,1.9,10.3,2.2,11.3,2.9z"/>
<path class="st0" d="M15.8,8c0-0.5,0-1-0.1-1.4L14,7.8c0,0,0,0.1,0,0.2c0,1.8-0.8,3.4-2,4.5l1.2,1.4C14.8,12.4,15.8,10.3,15.8,8z"/>
<linearGradient id="SVGID_00000170988284906802633250000005439457939551712165_" gradientUnits="userSpaceOnUse" x1="2.6617" y1="838.0257" x2="7.6855" y2="839.9172" gradientTransform="matrix(1 0 0 1 0 -824.8667)">
	<stop  offset="0.1324" style="stop-color:#F0E526"/>
	<stop  offset="0.2977" style="stop-color:#E8E225"/>
	<stop  offset="0.5306" style="stop-color:#D7DB2D"/>
	<stop  offset="0.8023" style="stop-color:#BACF35"/>
	<stop  offset="0.9829" style="stop-color:#A3C73F"/>
</linearGradient>
<path style="fill:url(#SVGID_00000170988284906802633250000005439457939551712165_);" d="M7.9,14.1c-1.8,0-3.4-0.8-4.5-2L2,13.3
	c1.4,1.6,3.5,2.6,5.9,2.6V14.1z"/>
<linearGradient id="SVGID_00000146467907072510701740000003416535654293960350_" gradientUnits="userSpaceOnUse" x1="0.7536" y1="832.8082" x2="2.763" y2="827.5408" gradientTransform="matrix(1 0 0 1 0 -824.8667)">
	<stop  offset="6.980000e-02" style="stop-color:#A3C73F"/>
	<stop  offset="0.2599" style="stop-color:#82BE61"/>
	<stop  offset="0.9216" style="stop-color:#18A8E1"/>
</linearGradient>
<path style="fill:url(#SVGID_00000146467907072510701740000003416535654293960350_);" d="M3.8,3.4L2.6,2.1C1,3.5,0,5.6,0,8h1.8
	C1.8,6.2,2.6,4.5,3.8,3.4z"/>
<g>
	<path class="st7" d="M69.2,4.7H64v8h-1.7V3.1h8.5v9.6h-1.7V4.7z"/>
	<path class="st7" d="M79.8,4.7h-3.7l0,0.5c-0.1,1.2-0.2,2.2-0.3,3c-0.1,0.8-0.2,1.5-0.4,2.1c-0.1,0.6-0.3,1-0.5,1.4
		c-0.2,0.3-0.4,0.6-0.6,0.8c-0.2,0.2-0.4,0.3-0.6,0.4c-0.2,0.1-0.5,0.1-0.7,0.1c-0.3,0-0.6,0-0.8-0.1V11c0.1,0,0.1,0,0.2,0.1
		c0.1,0,0.1,0,0.2,0c0.1,0,0.2,0,0.3-0.1c0.1,0,0.2-0.1,0.3-0.3c0.1-0.1,0.2-0.3,0.3-0.6s0.2-0.6,0.3-1c0.1-0.4,0.2-1,0.2-1.6
		c0.1-0.6,0.1-1.4,0.2-2.4l0.1-2h6.9v9.6h-1.7V4.7z"/>
	<path class="st7" d="M92.6,12.7h-1.8l-0.9-2.3h-4.4l-0.9,2.3h-1.7l3.9-9.6h1.9L92.6,12.7z M89.2,8.8l-1.6-3.9l-1.6,3.9H89.2z"/>
	<path class="st7" d="M100.1,4.7h-3.2v8h-1.7v-8h-3.2V3.1h8.1V4.7z"/>
	<path class="st7" d="M107,3.5h0.4c0.7,0,1.4,0.1,1.9,0.3c0.6,0.2,1,0.5,1.4,0.8c0.4,0.4,0.7,0.8,0.9,1.3c0.2,0.5,0.3,1.1,0.3,1.8
		c0,0.7-0.1,1.3-0.3,1.9c-0.2,0.5-0.5,1-0.9,1.3c-0.4,0.4-0.9,0.6-1.5,0.8c-0.6,0.2-1.2,0.3-2,0.3H107V13h-1.7v-0.9h-0.4
		c-1.5,0-2.6-0.4-3.4-1.1c-0.8-0.8-1.2-1.8-1.2-3.1c0-0.7,0.1-1.3,0.3-1.9c0.2-0.5,0.5-1,0.9-1.3c0.4-0.4,0.9-0.6,1.5-0.8
		c0.6-0.2,1.2-0.3,2-0.3h0.2V2.8h1.7V3.5z M102.2,7.8c0,0.5,0.1,0.9,0.2,1.3c0.1,0.4,0.3,0.6,0.6,0.9c0.3,0.2,0.5,0.4,0.9,0.5
		c0.3,0.1,0.7,0.2,1.1,0.2h0.3V5H105c-1,0-1.7,0.2-2.2,0.7S102.2,6.8,102.2,7.8z M107,5v5.5h0.3c1,0,1.7-0.2,2.2-0.7
		c0.5-0.4,0.7-1.1,0.7-2.1c0-0.5-0.1-0.9-0.2-1.3c-0.1-0.4-0.3-0.6-0.6-0.9c-0.3-0.2-0.6-0.4-0.9-0.5S107.7,5,107.3,5H107z"/>
	<path class="st7" d="M113,7.9c0-0.7,0.1-1.4,0.4-2c0.2-0.6,0.6-1.1,1-1.6c0.4-0.4,1-0.8,1.6-1c0.6-0.2,1.3-0.4,2.1-0.4
		c0.8,0,1.5,0.1,2.1,0.3c0.6,0.2,1.2,0.6,1.6,1s0.8,0.9,1,1.6c0.2,0.6,0.4,1.3,0.4,2.1c0,0.7-0.1,1.4-0.4,2c-0.2,0.6-0.6,1.1-1,1.6
		c-0.4,0.4-1,0.8-1.6,1s-1.3,0.4-2.1,0.4c-0.8,0-1.5-0.1-2.1-0.3c-0.6-0.2-1.2-0.5-1.6-1c-0.4-0.4-0.8-0.9-1-1.6
		C113.2,9.4,113,8.7,113,7.9z M114.9,7.9c0,0.5,0.1,0.9,0.2,1.3c0.1,0.4,0.4,0.8,0.6,1.1c0.3,0.3,0.6,0.5,1.1,0.7
		c0.4,0.2,0.9,0.3,1.4,0.3c0.5,0,1-0.1,1.4-0.2c0.4-0.2,0.8-0.4,1-0.7c0.3-0.3,0.5-0.6,0.7-1.1s0.2-0.9,0.2-1.4
		c0-0.5-0.1-0.9-0.2-1.3s-0.4-0.8-0.6-1.1c-0.3-0.3-0.6-0.5-1-0.7c-0.4-0.2-0.9-0.3-1.4-0.3c-0.5,0-1,0.1-1.4,0.2
		c-0.4,0.2-0.8,0.4-1,0.7c-0.3,0.3-0.5,0.7-0.7,1.1S114.9,7.4,114.9,7.9z"/>
	<path class="st7" d="M126.8,9.7v3h-1.7V3.1h3.2c1.5,0,2.6,0.3,3.3,0.8s1,1.4,1,2.4c0,1.1-0.4,2-1.1,2.5c-0.7,0.6-1.8,0.8-3.2,0.8
		H126.8z M126.8,4.7v3.5h1.6c0.8,0,1.4-0.1,1.8-0.4c0.4-0.3,0.6-0.7,0.6-1.4c0-0.6-0.2-1-0.6-1.3s-1-0.4-1.8-0.4H126.8z"/>
	<path class="st7" d="M143.4,5.5l-3.1,5.1h-0.9l-3.2-5v7.1h-1.7V3.1h2.2l3.2,5.2l3.2-5.2h2v9.6h-1.7V5.5z"/>
	<path class="st7" d="M156.2,12.7h-1.8l-0.9-2.3h-4.4l-0.9,2.3h-1.7l3.9-9.6h1.9L156.2,12.7z M152.9,8.8l-1.6-3.9l-1.6,3.9H152.9z"
		/>
</g>
</svg>
