<?xml version="1.0" encoding="utf-8"?>
<!-- Generator: Adobe Illustrator 26.1.0, SVG Export Plug-In . SVG Version: 6.00 Build 0)  -->
<svg version="1.1" id="Слой_1" xmlns="http://www.w3.org/2000/svg" xmlns:xlink="http://www.w3.org/1999/xlink" x="0px" y="0px"
	 viewBox="0 0 106.4 36" style="enable-background:new 0 0 106.4 36;" xml:space="preserve">
<style type="text/css">
	.st0{clip-path:url(#SVGID_00000028323120918525129820000003098175248023735973_);}
	.st1{fill:#21A038;}
	.st2{fill:url(#SVGID_00000109747992002514146070000012765233535490253492_);}
	.st3{fill:url(#SVGID_00000000936226627377095380000017181935185752860819_);}
	.st4{fill:url(#SVGID_00000122700050403554946810000000187175758988148657_);}
	.st5{fill:url(#SVGID_00000032629435031661736520000012969591107034134437_);}
	.st6{fill:url(#SVGID_00000054969142336816825160000003493031729545121687_);}
	.st7{fill:url(#SVGID_00000115509057654134305260000016715807596435002262_);}
	.st8{fill:#0087CD;}
	.st9{font-family:'SBSansDisplay-Semibold';}
	.st10{font-size:16.9573px;}
</style>
<g>
	<defs>
		<rect id="SVGID_1_" x="0.1" y="2.2" width="143" height="31.5"/>
	</defs>
	<clipPath id="SVGID_00000095333153929082503530000002811350343503462044_">
		<use xlink:href="#SVGID_1_"  style="overflow:visible;"/>
	</clipPath>
	<g style="clip-path:url(#SVGID_00000095333153929082503530000002811350343503462044_);">
		<path class="st1" d="M57,8.2l2.7-2h-8.9V18h8.9v-2h-6.4v-3h5.4v-2h-5.4V8.2C53.3,8.2,57,8.2,57,8.2z M44,10.8H41V8.2h4.9l2.7-2
			H38.4V18h5.3c3,0,4.7-1.3,4.7-3.7C48.4,12.1,46.9,10.8,44,10.8L44,10.8z M43.6,16.1h-2.7v-3.3h2.7c1.6,0,2.4,0.6,2.4,1.6
			C46,15.5,45.2,16.1,43.6,16.1z M66.9,6.2H62V18h2.5v-3.3h2.3c3.1,0,5-1.6,5-4.2C71.9,7.9,70,6.2,66.9,6.2L66.9,6.2z M66.8,12.7
			h-2.2V8.2h2.2c1.6,0,2.5,0.8,2.5,2.3S68.4,12.7,66.8,12.7z M34.1,15.5c-0.7,0.4-1.4,0.6-2.2,0.6c-2.3,0-3.9-1.6-3.9-3.9
			c0-2.2,1.7-3.9,3.9-3.9c0.8,0,1.6,0.2,2.3,0.7L36,7.6l-0.1-0.1c-1.1-0.9-2.5-1.4-4.1-1.4c-1.8,0-3.4,0.6-4.5,1.7
			c-1.1,1.1-1.8,2.6-1.8,4.3c0,1.7,0.6,3.2,1.8,4.4s2.7,1.7,4.5,1.7c1.8,0,3.4-0.6,4.5-1.8l-1.6-1.2C34.6,15.1,34.1,15.5,34.1,15.5z
			 M17.6,6.1c0.5,0.6,0.9,1.3,1.2,2l-8.9,6.6l-3.7-2.3V9.5l3.7,2.3C9.8,11.9,17.6,6.1,17.6,6.1z"/>
		
			<linearGradient id="SVGID_00000068660350476421244140000001796821161130646186_" gradientUnits="userSpaceOnUse" x1="1476.9258" y1="-2676.8655" x2="1458.5219" y2="-2623.6675" gradientTransform="matrix(0.1347 0 0 -0.1347 -195.5221 -341.657)">
			<stop  offset="0.144" style="stop-color:#F2E913"/>
			<stop  offset="0.304" style="stop-color:#E7E518"/>
			<stop  offset="0.582" style="stop-color:#CADB26"/>
			<stop  offset="0.891" style="stop-color:#A3CD39"/>
		</linearGradient>
		<path style="fill:url(#SVGID_00000068660350476421244140000001796821161130646186_);" d="M2.3,12.1c0-0.1,0-0.3,0-0.4L0,11.6
			c0,0.2,0,0.3,0,0.5c0,2.7,1.1,5.2,2.9,6.9l1.6-1.6C3.1,16.1,2.3,14.2,2.3,12.1z"/>
		
			<linearGradient id="SVGID_00000109024521841626441870000010893052673512749733_" gradientUnits="userSpaceOnUse" x1="1478.264" y1="-2578.9392" x2="1525.665" y2="-2560.8762" gradientTransform="matrix(0.1347 0 0 -0.1347 -195.5221 -341.657)">
			<stop  offset="5.900000e-02" style="stop-color:#0FA8E0"/>
			<stop  offset="0.538" style="stop-color:#0099F9"/>
			<stop  offset="0.923" style="stop-color:#0291EB"/>
		</linearGradient>
		<path style="fill:url(#SVGID_00000109024521841626441870000010893052673512749733_);" d="M9.8,4.6c0.1,0,0.3,0,0.4,0l0.1-2.3
			c-0.2,0-0.3,0-0.5,0c-2.7,0-5.2,1.1-6.9,2.9l1.6,1.6C5.8,5.4,7.7,4.6,9.8,4.6z"/>
		
			<linearGradient id="SVGID_00000078046613388084415340000015035697270125975991_" gradientUnits="userSpaceOnUse" x1="1520.2196" y1="-2690.1499" x2="1573.8215" y2="-2678.0349" gradientTransform="matrix(0.1347 0 0 -0.1347 -195.5221 -341.657)">
			<stop  offset="0.123" style="stop-color:#A3CD39"/>
			<stop  offset="0.285" style="stop-color:#86C339"/>
			<stop  offset="0.869" style="stop-color:#21A038"/>
		</linearGradient>
		<path style="fill:url(#SVGID_00000078046613388084415340000015035697270125975991_);" d="M9.8,19.7c-0.1,0-0.3,0-0.4,0l-0.1,2.3
			c0.2,0,0.3,0,0.5,0c2.7,0,5.2-1.1,6.9-2.9l-1.6-1.6C13.8,18.8,11.9,19.7,9.8,19.7z"/>
		
			<linearGradient id="SVGID_00000021800854163910204000000002708309468855627410_" gradientUnits="userSpaceOnUse" x1="1521.4808" y1="-2560.1179" x2="1567.3088" y2="-2574.2581" gradientTransform="matrix(0.1347 0 0 -0.1347 -195.5221 -341.657)">
			<stop  offset="5.700000e-02" style="stop-color:#0291EB"/>
			<stop  offset="0.79" style="stop-color:#0C8ACB"/>
		</linearGradient>
		<path style="fill:url(#SVGID_00000021800854163910204000000002708309468855627410_);" d="M14.1,5.9L16,4.5
			c-1.7-1.4-3.8-2.2-6.2-2.2v2.3C11.4,4.6,12.9,5.1,14.1,5.9z"/>
		<path class="st1" d="M19.6,12.1c0-0.6-0.1-1.2-0.2-1.8l-2.1,1.6v0.2c0,2.2-1,4.2-2.5,5.6l1.5,1.7C18.4,17.6,19.6,15,19.6,12.1
			L19.6,12.1z"/>
		
			<linearGradient id="SVGID_00000144330226732918024720000005682586177429666740_" gradientUnits="userSpaceOnUse" x1="1475.1475" y1="-2674.3037" x2="1525.0325" y2="-2692.9426" gradientTransform="matrix(0.1347 0 0 -0.1347 -195.5221 -341.657)">
			<stop  offset="0.132" style="stop-color:#F2E913"/>
			<stop  offset="0.298" style="stop-color:#EBE716"/>
			<stop  offset="0.531" style="stop-color:#D9E01F"/>
			<stop  offset="0.802" style="stop-color:#BBD62D"/>
			<stop  offset="0.983" style="stop-color:#A3CD39"/>
		</linearGradient>
		<path style="fill:url(#SVGID_00000144330226732918024720000005682586177429666740_);" d="M9.8,19.7c-2.2,0-4.2-1-5.6-2.5l-1.7,1.5
			c1.8,2,4.4,3.2,7.3,3.2V19.7z"/>
		
			<linearGradient id="SVGID_00000043459576993187352530000017775198267731894446_" gradientUnits="userSpaceOnUse" x1="1458.3423" y1="-2629.4897" x2="1478.3662" y2="-2577.3997" gradientTransform="matrix(0.1347 0 0 -0.1347 -195.5221 -341.657)">
			<stop  offset="7.000000e-02" style="stop-color:#A3CD39"/>
			<stop  offset="0.26" style="stop-color:#81C55F"/>
			<stop  offset="0.922" style="stop-color:#0FA8E0"/>
		</linearGradient>
		<path style="fill:url(#SVGID_00000043459576993187352530000017775198267731894446_);" d="M4.8,6.5L3.2,4.9C1.3,6.6,0,9.2,0,12.1
			h2.3C2.3,9.9,3.2,7.9,4.8,6.5z"/>
		<g>
			<text transform="matrix(1 0 0 1 25.1184 33.7542)" class="st8 st9 st10">ТЕСТИНГ</text>
		</g>
	</g>
</g>
</svg>
